<svg width="942" height="109" viewBox="0 0 942 109" fill="none" xmlns="http://www.w3.org/2000/svg">
<circle cx="546" cy="24" r="7.5" fill="#F0F2D1" stroke="#F0F2D1"/>
<circle cx="805" cy="101" r="8" fill="#E7ECF7"/>
<circle cx="395" cy="38" r="11" stroke="#F4E6E4" stroke-width="10"/>
<circle cx="924" cy="16" r="11" stroke="#F0F2D1" stroke-width="10"/>
<path d="M483 76C483 82.6274 477.627 88 471 88C464.373 88 459 82.6274 459 76" stroke="#F1E6F5" stroke-width="10"/>
<path d="M28.392 16.8038C25.0783 22.5433 17.7392 24.5098 11.9997 21.1961C6.26021 17.8824 4.29371 10.5433 7.60742 4.80383" stroke="#F3EAD1" stroke-width="10"/>
<path d="M869.785 43C866.471 48.7395 859.132 50.706 853.392 47.3923C847.653 44.0786 845.686 36.7395 849 31" stroke="#F3EAD1" stroke-width="10"/>
<line x1="194.536" y1="27.4645" x2="211.506" y2="44.435" stroke="#E4F2E6" stroke-width="10"/>
<line x1="694.506" y1="54.5355" x2="677.536" y2="71.5061" stroke="#F4E6E4" stroke-width="10"/>
<path d="M936.877 105.085L930.665 81.903" stroke="#F3EAD1" stroke-width="10"/>
</svg>
