<svg width="1136" height="72" viewBox="0 0 1136 72" fill="none" xmlns="http://www.w3.org/2000/svg">
<circle cx="374" cy="53" r="7.5" fill="#F0F2D1" stroke="#F0F2D1"/>
<circle cx="1048" cy="37" r="7.5" fill="#F0F2D1" stroke="#F0F2D1"/>
<circle cx="329" cy="8" r="8" fill="#F4E6E4"/>
<circle cx="8" cy="22" r="8" fill="#E7ECF7"/>
<circle cx="608" cy="24" r="11" stroke="#E7ECF7" stroke-width="10"/>
<path d="M456.242 14.2721C460.928 18.9584 460.928 26.5564 456.242 31.2427C451.556 35.929 443.958 35.929 439.271 31.2427" stroke="#F1E6F5" stroke-width="10"/>
<path d="M878.294 40.2343C871.892 41.9496 865.312 38.1507 863.597 31.7491C861.881 25.3475 865.68 18.7674 872.082 17.0521" stroke="#F3EAD1" stroke-width="10"/>
<line x1="740.594" y1="75.1551" x2="761.378" y2="63.1551" stroke="#E4F2E6" stroke-width="10"/>
<line x1="55.5355" y1="17.4645" x2="72.5061" y2="34.435" stroke="#F4E6E4" stroke-width="10"/>
<line x1="222" y1="34.4" x2="241.2" y2="20" stroke="#F3EAD1" stroke-width="10"/>
<line x1="1119.27" y1="55.0923" x2="1131.27" y2="34.3077" stroke="#F3EAD1" stroke-width="10"/>
</svg>
